#!OML:ASF G:\ViconDB\ViconDB\414\test\team2\shane.ASF
:FULLY-SPECIFIED
:DEGREES
264
root 7.67938 2.21788 4.06643 315.778 -36.9601 -67.2601
lowerback 15.2539 1.78361 3.06047
upperback 6.60632 2.82167 0.876941
thorax -1.44392 1.44392 -1.25958
lowerneck -24.9995 -4.65579 -8.39132
upperneck 24.609 -5.32777 6.57136
head 12.7775 -2.29742 2.95545
rclavicle -2.8625e-014 1.43125e-014
rhumerus 34.6705 37.2634 -64.7515
rradius 77.1312
rwrist 29.0317
rhand -45.4257 -23.5334
rfingers 7.12502
rthumb -18.1932 -52.7026
lclavicle -2.8625e-014 1.43125e-014
lhumerus -3.25896 -16.6624 85.883
lradius 104.843
lwrist -28.1928
lhand -66.9626 -297.069
lfingers 7.12502
lthumb -38.7516 -271.478
rfemur -7.68889 -26.2578 -27.5743
rtibia 114.465
rfoot -5.87535 20.6507
rtoes -15.9185
lfemur -32.881 17.5433 -11.4636
ltibia 98.3899
lfoot -7.92639 -5.27194
ltoes 3.88592
265
root 11.4019 5.89032 10.6477 297.404 48.3365 -139.872
lowerback 15.2539 1.78361 3.06047
upperback 6.60632 2.82167 0.876941
thorax -1.44392 1.44392 -1.25958
lowerneck -24.9995 -4.65579 -8.39132
upperneck 24.609 -5.32777 6.57136
head 12.7775 -2.29742 2.95545
rclavicle -2.8625e-014 1.43125e-014
rhumerus 34.6705 37.2634 -64.7515
rradius 77.1312
rwrist 29.0317
rhand -45.4257 -23.5334
rfingers 7.12502
rthumb -18.1932 -52.7026
lclavicle -2.8625e-014 1.43125e-014
lhumerus -3.25896 -16.6624 85.883
lradius 104.843
lwrist -28.1928
lhand -66.9626 -297.069
lfingers 7.12502
lthumb -38.7516 -271.478
rfemur -58.2983 -37.3961 12.0836
rtibia 96.3121
rfoot -19.8137 9.33141
rtoes -15.3276
lfemur -24.8445 -6.53176 -5.85992
ltibia 73.4507
lfoot -15.2906 4.90665
ltoes 7.36717
266
root 11.4312 5.98959 10.7802 296.088 48.443 -141.195
lowerback 15.2539 1.78361 3.06047
upperback 6.60632 2.82167 0.876941
thorax -1.44392 1.44392 -1.25958
lowerneck -24.9995 -4.65579 -8.39132
upperneck 24.609 -5.32777 6.57136
head 12.7775 -2.29742 2.95545
rclavicle -2.8625e-014 1.43125e-014
rhumerus 34.6705 37.2634 -64.7515
rradius 77.1312
rwrist 29.0317
rhand -45.4257 -23.5334
rfingers 7.12502
rthumb -18.1932 -52.7026
lclavicle -2.8625e-014 1.43125e-014
lhumerus -3.25896 -16.6624 85.883
lradius 104.843
lwrist -28.1928
lhand -66.9626 -297.069
lfingers 7.12502
lthumb -38.7516 -271.478
rfemur -59.5406 -37.5928 12.6862
rtibia 98.0844
rfoot -20.0196 9.80021
rtoes -15.3735
lfemur -24.9764 -4.58476 -5.77413
ltibia 73.7198
lfoot -15.5796 4.36983
ltoes 7.51846
267
root 11.4536 6.08702 10.9006 294.393 48.6758 -142.931
lowerback 15.2539 1.78361 3.06047
upperback 6.60632 2.82167 0.876941
thorax -1.44392 1.44392 -1.25958
lowerneck -24.9995 -4.65579 -8.39132
upperneck 24.609 -5.32777 6.57136
head 12.7775 -2.29742 2.95545
rclavicle -2.8625e-014 1.43125e-014
rhumerus 34.6705 37.2634 -64.7515
rradius 77.1312
rwrist 29.0317
rhand -45.4257 -23.5334
rfingers 7.12502
rthumb -18.1932 -52.7026
lclavicle -2.8625e-014 1.43125e-014
lhumerus -3.25896 -16.6624 85.883
lradius 104.843
lwrist -28.1928
lhand -66.9626 -297.069
lfingers 7.12502
lthumb -38.7516 -271.478
rfemur -60.5128 -38.0813 13.0597
rtibia 99.7059
rfoot -20.2007 9.61248
rtoes -15.5076
lfemur -25.343 -2.97402 -5.87888
ltibia 74.2191
lfoot -15.6629 3.9154
ltoes 6.78539
268
root 11.4786 6.18219 11.0274 292.649 48.8064 -144.454
lowerback 15.2539 1.78361 3.06047
upperback 6.60632 2.82167 0.876941
thorax -1.44392 1.44392 -1.25958
lowerneck -24.9995 -4.65579 -8.39132
upperneck 24.609 -5.32777 6.57136
head 12.7775 -2.29742 2.95545
rclavicle -2.8625e-014 1.43125e-014
rhumerus 34.6705 37.2634 -64.7515
rradius 77.1312
rwrist 29.0317
rhand -45.4257 -23.5334
rfingers 7.12502
rthumb -18.1932 -52.7026
lclavicle -2.8625e-014 1.43125e-014
lhumerus -3.25896 -16.6624 85.883
lradius 104.843
lwrist -28.1928
lhand -66.9626 -297.069
lfingers 7.12502
lthumb -38.7516 -271.478
rfemur -61.1365 -38.3747 13.2905
rtibia 101.311
rfoot -20.652 9.52721
rtoes -16.2765
lfemur -25.4731 -1.00228 -6.02188
ltibia 74.7049
lfoot -15.657 3.31913
ltoes 6.78539
